<?xml version="1.0" encoding="utf-8"?>
<!-- Generator: Adobe Illustrator 24.1.0, SVG Export Plug-In . SVG Version: 6.00 Build 0)  -->
<svg version="1.1" id="Layer_1" xmlns="http://www.w3.org/2000/svg" xmlns:xlink="http://www.w3.org/1999/xlink" x="0px" y="0px"
	 viewBox="0 0 967.1 707.3" style="enable-background:new 0 0 967.1 707.3;" xml:space="preserve">
<style type="text/css">
	.st0{fill:#020307;}
	.st1{fill:#82E9E4;}
	.st2{fill:#75B7B7;}
	.st3{fill:#6EE8E1;}
	.st4{fill:#7EEEE7;}
	.st5{fill:#6C7C8A;}
	.st6{fill:#7C91A3;}
	.st7{fill:#83AEB8;}
	.st8{fill:#94C2C9;}
	.st9{fill:#02050F;}
	.st10{fill:#424953;}
	.st11{font-family:'MyriadPro-Regular';}
	.st12{font-size:20.7566px;}
</style>
<rect class="st0" width="967.1" height="707.3"/>
<path class="st1" d="M722.5,32.7c4.1,4.3-0.7,3.5,4.4,5l2.7-1.1c0.9,2.1,0.8,1,0.1,3.3c-6.3,12.9-14.5,23.6-21.9,35.7
	c-2.8,5-4,11.4-7,16.3c-15.8,25.8-28.9,51-50.8,72.3c-33.3,32.2-55.6,47.8-100.4,25.2c-3.3-1.7-6.6-3.4-9.8-5.1
	c-15.1,13.2-65.2,66.7-75.4,72.3c-38.2,32-76.2,31.2-120.8,19.1c-26-7.1-54.8-3.7-79.4,5.6c-14.6,4.8-40.2,17.9-50.8,20.5
	c27.7-17.8,76.1-44.3,109.5-43.3c17,0.5,40.9,4.9,58.6,6.6c75.6-2.1,90.8-53.1,140.6-91.1c-6-3.6-10.6-6.2-16.9-9.4
	c-23,29.5-39.1,57.9-71.4,80.6l-3.4-1.4c20.9-21.3,32.6-45.6,48.6-70.7c-40.3,14.6-46.1,32.9-79.2,56.7
	c-13.3,9.5-55.4,27.7-69.7,24.9c2.1-2.3,19.8-6.4,24.4-7.9c9.8-3.1,19.4-6.9,28.7-11.5c8.8-4.4,17.1-9.7,24.7-16
	c19.6-16.1,45-46,71-47c3.5-3.8,11.7-11.2,11-16.1l1-0.6l0.6-1.5c-2.2-2.7-5.1-3.7-8.3-5.2c1.1-2.2,4.6-4.1,6.6-6.4l-0.8-2.1
	c-8.1-7.6-36.2-5.2-42.6-8.9c23.1-4.6,32.1-1,53.1,8.8c1.5,0.6,4,1.8,5.2,0.5c22-24.8,49.1-52.7,85.9-39.6
	c11.7,3.5,20,10.1,28.6,18.5l0.6,0.5c5.2,0.5,17.8-8.4,22.8-11.5c11.1-7.4,19.2-14,29.6-22.3c0.5-0.8,11.6-10.4,13.3-11.9
	c6.8-6.7,13.4-13.8,19.5-21.2C709.8,47.5,717.4,37.3,722.5,32.7z"/>
<path class="st0" d="M661.7,119.8c16.6-10.2,29.7-29.1,42.6-40.7c-1.3,4.9-10,17-12.9,21.8c-14,23.4-28.5,45.8-49.1,64.1
	c-7.6,6.7-11.4,11.5-20.7,16.8c-23.6,13.5-40.3,5.2-62.3-6.5l-1.5-1.8l1.5-1.7c16.9-9.6,42.1-18.3,60.9-27.4c1.1-1,2.6-1.3,4.1-1.8
	c2.8-1.1,5.1-2.5,7.8-4C637.9,137,656.8,123.9,661.7,119.8z"/>
<path class="st2" d="M620.4,144.5c1.1-1,2.6-1.3,4.1-1.8c4.3,3.9,22.1,12.8,22.9,14.7C639,161,627.8,146.2,620.4,144.5z"/>
<path class="st3" d="M589.2,160.2c8.1,1.6,19,9.1,29.4,10.3c4.8,0.5,14.9-1.1,15.6-0.7C622.4,179.2,598.5,169.3,589.2,160.2z"/>
<path class="st4" d="M642.6,108.8l2.7,2.2l-0.2,1.2l1.8,1.3c4.8-2.1,4.9-3,9.6-2.6c2.5,2.8,1.8,1.5,2.4,5.1c0.8,0.1,3.5-1,4.5-1.3
	c-0.7,1.4-1.4,2.9-2.2,4.3l0.5,0.7c-4.9,4.1-23.8,17.2-29.5,18.9c-2.7,1.5-4.9,2.9-7.8,4c-1.5,0.5-3,0.9-4.1,1.8
	c-18.8,9-44,17.8-60.9,27.4l-1.5,1.7l1.5,1.8l-1,2.2c-3.7-1.3-5.7-2.1-9.1-0.6l-0.3,3l-2.7,1.2l1.1,0.4l-9.6-1.5l-0.9,1.8l-1.2,0.3
	c-3.7-3.4-10-6.6-11.1-9c0.3-0.5,12.8-9.7,14.7-11.1c9.1-4.4,18.9-9.9,27.9-14.7c-3.7-1.1-5-1.2-8.2-3.4c3.1-0.5,7.1,1.1,10.2,2.1
	c8.5-3.2,36-15.7,43.9-20.8l-0.6-1.6c2.9-1,4.8-1.3,6.6-3.7l0.6,0.5C624.9,120.9,637.5,111.9,642.6,108.8z"/>
<path class="st3" d="M645.1,112.2l1.8,1.3c4.8-2.1,4.9-3,9.6-2.6c2.5,2.8,1.8,1.5,2.4,5.1c-5,2.8-11.5,4.2-16-0.4l0.2-1.9
	L645.1,112.2z"/>
<path class="st0" d="M520.7,148.8c31.3-31.7,47.7-50.3,91-25.5c0.3,0.1,0.6,0.2,0.8,0.3l0.6,1.6c-8,5.1-35.4,17.6-43.9,20.8
	c-3.2-1-7.1-2.6-10.2-2.1c3.2,2.1,4.6,2.3,8.2,3.4c-9,4.8-18.8,10.2-27.9,14.7c-3.7-1.3-16.9-8.6-19.8-11.4L520.7,148.8z"/>
<path class="st4" d="M381.4,265.1c3.1,2.7,10.4,0.7,15.5,1.4c-8.1,6.7-75.6-9.2-90.6-0.6c-1.4,0.8-7.4,0.9-9.1-0.1
	c3.1-2.8,4.3-1,10.2-1.9l0.7-1.3c-4.5-0.6-30.8,7.7-32.4,9.7c2.7,0.8,17-1.1,20.2-2c5.5-1.5,5.5,0,11.2-0.3
	c-1.8-1.8-1.6-0.9-1.8-2.8c19.4-4.3,69.6,16.3,94.2,12.3c12.5-2,13.9-1.4,27.2-5.9c10.3-3.4,30.4-17.2,37.6-17
	c-38.2,32-76.2,31.2-120.8,19.1c-26-7.1-54.8-3.7-79.4,5.6c-14.6,4.8-40.2,17.9-50.8,20.5c27.7-17.8,76.1-44.3,109.5-43.3
	C339.8,259,363.7,263.4,381.4,265.1z"/>
<path class="st4" d="M685.5,74.6l1.5,2.7c-0.9,1.8-1.1,2-2.4,3.5l0.1,2.1l1.8-1.1c-0.2,2.5-0.5,5.4-1.7,7.6c-1,0.5-2.3,0.9-2.9,1.7
	l1,1.9c3.4-2,1.7-3.6,5.3-3.5c-1.7,5.9-17.4,14-20.7,20.4c-0.1,0.3-3.5,4.2-4,4.9c-1,0.3-3.6,1.4-4.5,1.3c-0.7-3.7,0-2.3-2.4-5.1
	c-4.6-0.4-4.7,0.5-9.6,2.6l-1.8-1.3l0.2-1.2l-2.7-2.2c11.1-7.4,19.2-14,29.6-22.3C672.7,85.7,683.8,76,685.5,74.6z"/>
<path class="st3" d="M672.2,86.5l0.4,2c-12.2,14.1-12.8,13-27.3,22.5l-2.7-2.2C653.7,101.4,661.8,94.8,672.2,86.5z"/>
<path class="st4" d="M489,140.4c3.2,0.9,5.4,1.5,8.5,2.8l3.6,2.4c-0.3,4.9-3.4,6.3-7.1,8.9c-0.5-0.1-2.1-0.2-2.6-0.4
	c-2.2-2.7-5.1-3.7-8.3-5.2c1.1-2.2,4.6-4.1,6.6-6.4L489,140.4z"/>
<path class="st3" d="M512.6,157.5c2.9-2.5,2.8-3.2,6.2-3.5c4,2.6,10.5,8,14.4,8.8c0.1,2.4,0.2,2.2-1.1,4.2c-7.4,4.9-17-1.3-23.5-4.9
	L512.6,157.5z"/>
<path class="st3" d="M494.2,159.1l2.5-0.6c3.4,3.2,2.4,6,1.3,10.3l-1.7,0.7c-2.5,4.6-7.1,11.5-13.4,9.3l2.9,0.2
	c-2.4,0.1-1.3,0.4-3.4-0.7l-0.4-1.4c1.4-4,6.2-9.4,9.1-13.8C492.1,160.6,492,160.8,494.2,159.1z"/>
<path class="st4" d="M494.2,159.1l2.5-0.6c3.4,3.2,2.4,6,1.3,10.3l-1.7,0.7c-2.1-1.8-2.1-2.2-3.1-4.9l-0.3-0.8l-1.8-0.6
	C492.1,160.6,492,160.8,494.2,159.1z"/>
<path class="st3" d="M704.3,67.5l2.2,0.1l0.4,1.3c-5.3,7.3-8.3,7.6-14.7,17c0.2-6.3,0.9-14.4,7.3-16.6c1.8,0.6,1.3,0.5,3.1,0.7
	L704.3,67.5z"/>
<path class="st5" d="M200.1,456c13.1-3.4,36.2-2,47.9,4.9c3.6,2.1,7.1,4.3,10.7,6.5c1.6-0.7,0.9-0.2,1.9-1.5l-0.3-3.3
	c4.3-3.7,17-2.2,23.4-2.2c-1.3,35.9,0.3,73.2-0.2,109.2c-0.1,4.6,0.6,32.3,0,34.6l-1.8,0.4c-9.8,0-21.8-0.3-31.4,0.2l-0.6-20.4
	c-9.4,10.7-22.3,21.2-37.2,22.3c-10.4,1.8-16.4,1.6-26.9,0c-4.7-0.5-5.7-1-9.9-2.9c-14-5.6-20.4-13.5-25.7-27.3l-0.3-1.6
	c-5.3-32.9,15.7-53.1,47.1-57.5l2.5-0.3c12.9-3.6,35.3-2.8,48.5,0c1.1-24.9-5.2-31-28.7-35.2c-23.2,3.4-26.5,1.4-48.7,13.3
	c-3.2-6.2-13.5-18.9-13.4-24l2.8-2c14.2-6.7,23.9-10.4,39.4-13.2H200.1z"/>
<path class="st6" d="M260.6,465.9l-0.3-3.3c4.3-3.7,17-2.2,23.4-2.2c-1.3,35.9,0.3,73.2-0.2,109.2c-0.1,4.6,0.6,32.3,0,34.6
	l-1.8,0.4c-8.8-4.2-25,1.1-29.2-2.3c8.1-2,19.6,2.2,25.3-1.5c3.6-9.3,1.9-122.1,1.2-136.3c-5.6-0.2-12.3-0.8-16.6,2.8L261,467
	L260.6,465.9z"/>
<path class="st6" d="M159.9,469.3c1.9,4.6,8.5,15,12.5,18.2c4.6,1.2,8.6-0.1,12.6-2.5c7.3-4.3,37-9.8,42.9-4.2
	c-3.5,1.5-5,1.2-8.8,1.2c-23.2,3.4-26.5,1.4-48.7,13.3c-3.2-6.2-13.5-18.9-13.4-24L159.9,469.3z"/>
<path class="st6" d="M149.9,576.5c0.4-3.4,0.1-4.9,2-7.4c1.8,5.3,4.2,13.8,6.7,18.3c2.5,4.3,16.4,11.2,18,15.6l-1.1,0.7
	C161.6,598.2,155.2,590.3,149.9,576.5z"/>
<path class="st6" d="M185.5,606.7c5-3.7,21.6-3.5,26.9,0C201.9,608.4,195.9,608.3,185.5,606.7z"/>
<path class="st6" d="M199.3,456.1l0.7-0.1c2.8,0.3,6.6,0.3,9.5,0.5l-0.2,1c-3.9,2.2-5.7,2.8-9.7,0.7L199.3,456.1z"/>
<path class="st6" d="M196.8,517.4l2.5-0.3c3.7,0,5-0.1,8.5,1l0.3,1C202.8,520.4,201,520.6,196.8,517.4z"/>
<path class="st0" d="M215.8,581.1c-10.7,0.7-17.7,1.4-26.8-6.1c-3-2.5-6.2-7.9-5.9-12c1.9-29.1,47.1-26.3,65.3-25.9
	c0.4,21.6,2,27.7-17.9,39.4l2.3,1.4l-0.3,1.5c-5.7,3.5-17.3,5.9-23.5,5.2C209.8,582.9,213.3,582.6,215.8,581.1z"/>
<path class="st6" d="M230.5,576.4l2.3,1.4l-0.3,1.5c-5.7,3.5-17.3,5.9-23.5,5.2c0.8-1.7,4.3-1.9,6.8-3.4
	C220.9,579.7,225.5,578.1,230.5,576.4z"/>
<path class="st5" d="M813.4,514c-0.1-5.7,7.2-21.3,10.5-26c36.1-51.1,116.8-41.8,129.2,23.3c2,9.8,2.5,17.1,2.4,27.1
	c-7.2,1.2-27.4,0.7-35.4,0.7c-24.7,0-49.5,0.2-74.2,0.5c5.8,27.6,19,39.8,48.1,39.2c5.5-0.6,9.4-1.8,14.7-3.2
	c8.8-3.6,12.4-6.3,19.6-12.6c7.6,6.8,14.5,12.1,22.5,18.3c-15,13.4-28.2,22-48.6,25.1c-44.3,6.8-83.4-17.2-90.4-62.6
	C810.5,533.4,811.1,524,813.4,514z"/>
<path class="st6" d="M951.2,535c-0.2-5.6,1.2-19,0.3-22.8l1.7-0.9c2,9.8,2.5,17.1,2.4,27.1c-14.2-2.6-33.9,0.1-47-1.5
	C911.4,534.3,945.4,535,951.2,535z"/>
<path class="st6" d="M813.4,514c2.7,5.1,1.5,24-0.5,29.3l-1.1,0.4C810.5,533.4,811.1,524,813.4,514z"/>
<path class="st5" d="M894,578.6c5.5-0.6,9.4-1.8,14.7-3.2l2.4,1.4c-1.9,4-14.4,5.4-18,3.5L894,578.6z"/>
<path class="st0" d="M871.6,484.5l-0.5-1.9c6.3-6.5,24.3-4.2,31.6,0.3c0.1,2.1,0.4,1.2-1,2.9c12.6,8.7,15.6,14.7,18.3,29.6l0.3,1.8
	c-9.9-0.1-70.1,0.5-73.4-1c-2.9-3.3-2.1-7.6,0.9-10.5l2.3,1.4C855.6,495.9,860.7,490.7,871.6,484.5z"/>
<path class="st6" d="M871.6,484.5l-0.5-1.9c6.3-6.5,24.3-4.2,31.6,0.3c0.1,2.1,0.4,1.2-1,2.9C889.2,481.4,884.4,481.4,871.6,484.5z"
	/>
<path class="st6" d="M846.9,516.1c-2.9-3.3-2.1-7.6,0.9-10.5l2.3,1.4L846.9,516.1z"/>
<path class="st5" d="M405.1,506c6-22.8,30-42.7,52.2-48.7c18-4.8,37.1-2.3,53.2,7.1c10.5,6.1,21.4,17.3,24.6,29.2
	c4.6,9.9,7.4,20.1,7.4,31.1c0.6,5.8,0.8,8.4,0.6,14.2c-35.3-0.4-70.6-0.4-106,0c6.1,45.5,48.2,49.2,79.8,23.7
	c7.1,6.2,14.3,12.6,21.5,18.7c-8.7,7.2-17.3,15.1-27.9,19.5c-30.6,12.8-70.6,7.7-92-19.4c-8.7-11.1-15.8-25.2-16.8-39.5
	C399.7,529.9,402.2,517.5,405.1,506z"/>
<path class="st6" d="M539.3,534.9c-0.7-12.9-2.3-25.5-5.5-38.1c0,0,1.2-3,1.3-3.2c4.6,9.9,7.4,20.1,7.4,31.1
	c-0.5,3.8-0.5,8.5-0.6,12.4c-17.9-0.6-37.4,0.5-55.5,0.1c-6.7-0.2-17.3,0.4-23.5-0.6C474.3,532.2,524.2,534.5,539.3,534.9z"/>
<path class="st6" d="M405.1,506c0.5,0.8,1,1.7,1.7,2.8c-0.5,9.8-2.1,22.2-3.5,31.7c-0.8,0.8-0.8,1-1.6,1.2
	C399.7,529.9,402.2,517.5,405.1,506z"/>
<path class="st0" d="M468,482.3c27.2-2,35.9,9.6,40.2,34.2c-9.4-0.4-20.7-0.3-30.3-0.4c-13.6-0.1-27.2,0.1-40.8,0.5
	C443.6,497.9,448.3,488.3,468,482.3z"/>
<path class="st6" d="M457.8,517.6c14.1,0,29.7-0.4,43.6,0.8c1.6,1,0.8,0.9,2.8,0.5c-3.6,0.3-6.1,1.1-10.5,1.3
	c-10.1,0.2-41.6,0.6-50.3-1.1C446.9,518.2,453.9,517.9,457.8,517.6z"/>
<path class="st5" d="M597.5,470.9l0.4,10.7h0.7c13.3-15.9,23.2-25.3,45.2-26.1c63.9-2.3,55.3,64.2,55,107.8
	c-0.1,14.5,0.4,27.6,0,41.1c-11.1-0.7-24.7-0.2-36.1,0c1.3-27.5-0.5-56.7,0.7-84.1c-0.8-7.1-1.3-16.1-5.3-21.9
	c-17.6-26.1-44.3-9.8-57.6,8.9c-1.9,23-0.8,47.2-1.2,70.3c-0.2,7.1,0.4,19.8-0.3,26.5c-11.9-0.2-23.8-0.1-35.7,0.3V526
	c0.1-21.5,0.5-45.4-0.7-66.8c11.2,0.6,24.4,0,35.6-0.4C598.3,463.1,597.9,466.7,597.5,470.9z"/>
<path class="st6" d="M562.6,459.3c11.2,0.6,24.4,0,35.6-0.4c0.1,4.2-0.3,7.8-0.6,12c-0.5,3.6-0.5,5-2.1,8.3
	c-1.8-2.2-1.4-13.2-1.3-16.6c-9.4,0.3-17.4,0.6-26.8,0c-0.9,27.8-0.2,56.9-0.5,84.9c-0.1,10.9-0.4,41.7,1.3,51.3
	c3.6,2.3,18.4,1.1,23.4,1c2.3-0.1,2.6-1.3,3.5-2.9c0.1-3.5-0.2-14.7,1-16.7c2.7,5.7-0.1,15.2,2.9,24c-11.9-0.2-23.8-0.1-35.7,0.3
	v-78.4C563.3,504.5,563.8,480.6,562.6,459.3z"/>
<path class="st6" d="M663.4,520.4c0.1-2.6,0.1-9.9,1.1-11.8c3.4,4.2-1.1,78.6,3.6,90.1c0.7,1.6,25,1.6,27.9,1.7
	c0-5.5-0.1-11.1,0.7-16.5c0.3,5.5,0.2,16.2,2.2,20.8c-11.1-0.7-24.7-0.2-36.1,0C664,576.9,662.2,547.8,663.4,520.4z"/>
<path class="st5" d="M7.2,407.2l38.4-0.6c0,53.1,1.4,114.3-0.7,166.7c5.6-0.4,8.7-0.4,14.2-0.1c23.5-0.5,54.7,0.3,77.3-1.1
	c-0.1,11.3,0,21.1,0.5,32.4c-36.7-1.7-92.9-1.4-129.8,0c0.1-7.3-0.1-16.5,0.4-23.7c-0.6-3.3,0-40.6,0-45.7L7.2,407.2z"/>
<path class="st6" d="M7.4,580.8c1.8-2.7,1.4-10.9,1.6-14.9c0.2,0.9,0.2,0.6,0.2,1.5c-0.3,11.2,1.4,21.8,3,32.9
	c13.5-1.2,32.9,0,47,0.1c24.4,0.1,48.8,0.1,73.1-0.1c-3.3-34,7.8-22.3-32-23.8c-7.8-0.3-51.8,1.5-55.2-0.8c3.8-2.9,9.6,0.4,14-2.6
	c23.5-0.5,54.7,0.3,77.3-1.1c-0.1,11.3,0,21.1,0.5,32.4c-36.7-1.7-92.9-1.4-129.8,0C7.1,597.2,7,588,7.4,580.8z"/>
<path class="st5" d="M322.5,422.7c11.8,0.5,23.3,0.3,35.1,0.1c-0.2,12.2-0.2,24.4,0,36.6c5.1-0.1,32.1-0.9,35.2,0.6
	c-0.3,7.7-0.8,16.4-0.8,24.1c-9,1.2-24.8,1-34.4,1.2v48.9c0,11.3-1.9,30.4,5.1,39.9c3,4,11.9,3.4,16.5,3.3c3.9-0.7,7.4-1.4,11.3-2.4
	c-0.2,9.7,0.4,19.4,1.8,29c-1.7,0.5-3.5,0.9-5.2,1.2c-26,5.2-57.4,0.1-63.2-30.4c-1.8-12.9-0.9-49.1-0.4-63.2
	c-0.4-7.7,0.1-19,0.1-27c-7.1,0.1-16.4,0.5-23.3-0.5c-0.1-5.5-0.6-19.4,0.4-24l1.4-0.6c7.1-0.3,14.1-0.3,21.2-0.2
	C323.3,446.9,323.6,435.2,322.5,422.7z"/>
<path class="st6" d="M323.5,511.7c1.8-5.6,2.1-14.3,2.6-20.3l0.5,1.5l-0.1-3.5c-0.3,2.5-0.8,2.9,0.2,4.4c0.2,10.5,2,74.4-2.9,81.1
	C322.2,562.1,323,525.9,323.5,511.7z"/>
<path class="st6" d="M388.3,463.3c-6.8,0-16-0.6-23-0.9c8.2-1.6,17.9-0.9,26.6-2.3l0.9-0.1c-0.3,7.7-0.8,16.4-0.8,24.1
	c-8-1.3-21.1,0.4-30.2-1.9c9.7-0.7,17-0.8,26.7-0.6C388.3,475.5,388.2,469.4,388.3,463.3z"/>
<path class="st6" d="M300.3,484.2c-0.1-5.5-0.6-19.4,0.4-24l1.4-0.6c5.6,1.3,17.2-0.1,20,3.2c-5.1,0.2-12.9-1.1-16.3,0.6
	c-1.8,2.7-1.7,11.5-2.1,16c3.3,2.2,15.9,0.5,19.7,2.5C321.3,482.9,304.2,483.8,300.3,484.2z"/>
<path class="st6" d="M379.3,577.5c3.9-0.7,7.4-1.4,11.3-2.4c-0.2,9.7,0.4,19.4,1.8,29h-7.2l-0.2-0.8l2.1-0.8
	c2-6.8,0.6-14.8-1.9-21.3c-3.2-2.6-1.8-1.8-6.6-2.4L379.3,577.5z"/>
<path class="st5" d="M732.7,423.4c10.5-0.2,25,0,35.2-0.8c-0.1,12.3,0,24.9-0.4,37.1c10.6-0.1,24.6,0.1,34.8-0.8
	c-0.6,8.6-0.9,17.2-1.1,25.8l-33.9,0.2c0.3,14.2-2.9,82,5,89.2c2.3,2.1,5,3.4,7.8,4.5c8.4,0.4,12.7-0.4,20.9-1.9
	c0.2,8.3,0.2,19.3,1,27.3c-23.1,7.6-57.8,4.7-65.8-22.8c-4.8-10.6-3.8-40.4-3-52.5c-1-12.1-0.2-31.4,0-44
	c-6.2-0.1-17.5,2.1-21.7-2.1v-4.3c-0.3-4.4-0.9-13.1-0.1-17.3l1.4-0.8c6.7-0.3,13.4-0.4,20.1-0.4C733,449.9,733.5,433,732.7,423.4z"
	/>
<path class="st6" d="M733.3,528.7c2.8-7.8,0.3-17.1,2.1-24.5c0.8,3.4,2.3,75,0.9,77C731.5,570.6,732.5,540.8,733.3,528.7z"/>
<path class="st6" d="M801.1,576.8c0.2,8.3,0.2,19.3,1,27.3l-6.6-0.5c0.3-1.8,2.4-3.8,2.4-4.1c0.1-5.3-0.5-12.6-0.9-17.7
	c-6.4,0.7-12.6,1-18.9-0.8l-0.5-1.3l2.5-1C788.5,579,792.8,578.3,801.1,576.8z"/>
<path class="st6" d="M711.6,478.4c-0.3-4.4-0.9-13.1-0.1-17.3l1.4-0.8c2,0.4,9.4,1.8,11.7,1.9c1.8,0.1,0.7-3,2.8,0.2l-0.7,0.3
	l0.5-0.8l-0.6-0.3l-0.8,1.2l-0.6-1.6c-18.2-0.9-5.8,20.3-11.5,22C713.5,482.5,712,478.8,711.6,478.4z"/>
<path class="st3" d="M726.2,70.6c5.3-0.6,11.7-0.5,17.2-0.6c0.7,27.5,1,302.3-0.9,305.5c-5.9-0.2-12.2-0.1-18.1-0.2
	C724.7,347.4,722.2,80.5,726.2,70.6z"/>
<path class="st4" d="M695.8,120c5.8-0.3,12.3-0.8,18-0.8c0.5,16.9-0.1,33.6,0,50.5l0.1,135.5c0,18.4-1.1,53,0.3,70
	c-5.5,0-12-0.2-17.4,0.3l0.8-15.7c-1-20.6-0.2-46.8-0.1-68c0.3-45.9,0-91.7-1.1-137.6C695.1,143.1,695.3,131.2,695.8,120z"/>
<path class="st3" d="M695.8,120c5.8-0.3,12.3-0.8,18-0.8c0.5,16.9-0.1,33.6,0,50.5l0.1,135.5c0,18.4-1.1,53,0.3,70
	c-5.5,0-12-0.2-17.4,0.3l0.8-15.7c3.2-10.6,0.6-27.4,2.9-39.2c0.9,7.5-1.1,45.4,3.7,47.8c11.8-15.9,4.2-136.6,6.2-163.6
	c0.8-10.3,1.7-73.9-0.2-79.9l-2.3-0.6l-1.6,2.1c-1.2-0.4-2.1-0.8-3.2-1.4c-6.3,5.5-2.4,26.1-4.6,30.2l-2-0.9
	C695.1,143.1,695.3,131.2,695.8,120z"/>
<path class="st3" d="M384.1,180.3c17-21.9,33.7-42.5,62.3-48.7c6.4,3.6,34.5,1.3,42.6,8.9l0.8,2.1c-2.1,2.3-5.5,4.2-6.6,6.4
	c3.2,1.5,6.1,2.5,8.3,5.2l-0.6,1.5l-1,0.6c-15.2-6.8-26.2-8.6-42.2-3.3c-25,8.3-45.2,45.8-64.5,56.4
	c-30.8,22.8-64.7,25.6-101.2,31.5c-5.9,0.9-30.9,6.9-34.8,5c9.3-3.4,23-6.8,32.8-9.5c14.8-4,29.4-8.7,43.7-14
	c12.9-5.4,21.9-10.7,33.9-17.7C368.3,196.6,374.8,190,384.1,180.3z"/>
<path class="st4" d="M323.6,222.4l2,1.1c-0.6,2.3-4.1,1.8-7.9,4.3l0.3,1.2c9.7,5.9,50.9-14.1,60.6-20.2c1.7-1,2.6,0,4.5,0.8
	c-30.8,22.8-64.7,25.6-101.2,31.5c-5.9,0.9-30.9,6.9-34.8,5c9.3-3.4,23-6.8,32.8-9.5C294.7,232.4,309.2,227.7,323.6,222.4z"/>
<path class="st4" d="M384.1,180.3c0.5,1.7,1.3,2.9,0.2,4.3c-6.5,7.8-16.2,20.1-26.8,20.1C368.3,196.6,374.8,190,384.1,180.3z"/>
<path class="st4" d="M685.2,155.6l1.5,0.8c1,4,0.3,54.7,0.2,62.5c-0.5,52.2-0.5,104.3,0,156.5c-5.6,0.2-11.6,0-17.2,0
	c-0.9-15.1,0-37.9,0.1-53.5c0.2-26.9,0.1-53.8-0.3-80.8c-0.1-15-0.3-30.1-0.6-45.1c-0.1-5.5-1.2-25.9-0.3-30.3
	c4.9-2.4,3.5-5.8,6.6-9.2C676,155.4,683.3,155.6,685.2,155.6z"/>
<path class="st3" d="M654.2,192.5l3.7-0.5c0.3,0.4,0.8,0.8,1,1.3c0.4,1.3,1,169.5-0.1,180.6c-2.8,1.8-7,1.2-10.6,1.1l-4.2,0.1
	c-0.5-0.5-1-1-1.5-1.5c0.5-49.4-0.3-136.3-0.7-180.8C645.8,192.8,650.2,192.6,654.2,192.5z"/>
<path class="st4" d="M647.5,329.5c4.8,7.4,4.3,11.2,2.6,19.6l-2.1-0.8C644.8,343.2,646.7,335.8,647.5,329.5z"/>
<path class="st2" d="M529.1,207.8c4.4,0,11-0.5,14.7,1.5c3.5,4.2,2.8,10.6,1.8,16c-1.4,17-1.1,40.4-1.2,57.8l-0.3,92.4h-18.6
	c2-37.4,0.6-76.5,1.6-114C527.5,248.1,527.1,220.2,529.1,207.8z"/>
<path class="st3" d="M529.1,207.8c4.4,0,11-0.5,14.7,1.5c3.5,4.2,2.8,10.6,1.8,16c-0.3-6-0.9-13-8.8-12.6
	c-6.1,4.8-3.7,13.2-6.7,21.2C529.2,225.2,530.6,216.2,529.1,207.8z"/>
<path class="st3" d="M556.8,217.5c7.6,1.9,10.3,1.6,18,1.7c0.4,51.8-0.7,104.4-0.8,156.4c-5.7-0.2-11.7-0.2-17.3-0.3
	C557.3,323.4,556.5,269.8,556.8,217.5z"/>
<path class="st4" d="M588.8,220.5l14.8-0.4c-0.2,15.7-0.3,152.7-1.8,155.1l-2,0.4l-14.9,0.1c1.2-39.2-0.5-80.4,0.1-119.7
	c0.1-5-0.2-31.2,0.9-34.8L588.8,220.5z"/>
<path class="st4" d="M620.2,205.7c4,0,3.5-0.7,5.8,1.3c1.3,10,1.4,160.4-0.6,165.9c-0.9,2.4-2.8,2.5-5,3.4c-3.1-0.9-4-0.8-6.1-3
	c1.1-38.7,1.6-77.4,1.5-116.2c0.1-15,0-30.9-0.1-46C615.8,208.3,618.1,207.3,620.2,205.7z"/>
<path class="st7" d="M477.6,262.9c1,0,1.8,0.3,2.8,0.6c1.7,8.1,1.1,103-0.3,110.6c-3.1,2-7,1.4-11,1.4l-2.5-1
	c-0.9-4.8-0.6-27-0.6-32.9c-0.1-24.3-0.2-48.7,0-73C469.5,266.6,473.9,264.7,477.6,262.9z"/>
<path class="st6" d="M629.8,647.3c19.4-0.5,28.7-2.9,38.3,16.8c0,1.9-0.2,9.7,0.1,11.2c-6.4,18.4-22.8,16.8-38.8,16
	C629.4,676.6,629.6,662,629.8,647.3z"/>
<path class="st0" d="M635.1,651.7c20.6,0.2,35.6,9.8,23.2,30.9c-7.4,4.6-14.1,4.3-22.7,4.9C635.6,675.6,635.4,663.7,635.1,651.7z"/>
<path class="st8" d="M510.1,233.5c2.6,0.6,2.6,0.6,4.8,1.8c0.6,8.2,0.3,18.3,0,26.6c-1.5,37.1,1.1,75,0,112l-3.5,3
	c-2.8-0.9-2.8-0.8-5.3-2.5v-96.2c0-13-0.2-27-0.2-40.2C505.9,235.5,507.8,235,510.1,233.5z"/>
<path class="st7" d="M446.7,286.4c0.8,0,1.4,0.4,2.2,0.7c0.9,3.2,1.1,83.1,0.3,87.2c-3.1,1.6-7.1,1.1-10.7,1.1
	c-0.1-0.1-0.3-0.2-0.4-0.3c-2.4-2.7-2-77.8-0.9-86.2C439.7,286.7,443.1,286.8,446.7,286.4z"/>
<path class="st3" d="M736.4,5.1L745,0c0.8,20.5,2.3,34.9,5.7,55c-4.7-3-12.8-7.7-16.5-11.5l-4.6-3.6c0.7-2.3,0.8-1.2-0.1-3.3
	l-2.7,1.1c-5-1.5-0.3-0.7-4.4-5l-2.2-1.9c-5.9-3.2-11.7-5-18-7.1c6.2-2,10.2-4.3,16-7.3C723.3,12.7,731,8.4,736.4,5.1z"/>
<path class="st4" d="M736.4,5.1L745,0c0.8,20.5,2.3,34.9,5.7,55c-4.7-3-12.8-7.7-16.5-11.5l1.6-1.9c3.9,0.3,3.7,1.2,7.1,4.3l1.3-0.8
	c0.6-8.1-1.4-26.5-1.8-35.3C742.3,8,738.4,6.3,736.4,5.1z"/>
<path class="st7" d="M491.6,282.4c-0.4-7.8-2-19.3,1.8-25.7c3-2.1,1.8-1.9,5-1.8c1.7,2.8,2.1,56.9,1.2,62.4
	c0.3,6.2,0.8,52.6-0.3,56.6c-2.7,2.1-2.1,1.4-6.6,1.2c-0.4-0.4-0.8-0.8-1.2-1.3C490.8,348.6,491.3,306.1,491.6,282.4z"/>
<path class="st8" d="M491.6,282.4c-0.4-7.8-2-19.3,1.8-25.7c3-2.1,1.8-1.9,5-1.8c1.7,2.8,2.1,56.9,1.2,62.4l-2.4,6.6l-0.8,0.2
	C494.6,321.3,494.5,292.2,491.6,282.4z"/>
<path class="st6" d="M98.6,659.6c33.5-1.6,20,44.1-4.2,30.3l-1.3,2c0.1,4.3,1,11.7-1.7,14.9c-3.1,0.3-1.7,0.6-4.3-1
	c-1.3-7.2,0.2-34.1,0.7-42.7C88.2,658,91.3,664,98.6,659.6z"/>
<path class="st0" d="M99.4,664.7c14-1.2,17.1,14.4,7.2,22C89,689.2,89.6,671.3,99.4,664.7z"/>
<path class="st6" d="M800.8,644.3c10.9,2.2,1.1,9.4,5.7,16.6c7.2-1.9,14.5-3.7,20.2,2.4c8.1,8.6,3.6,19.7-3.1,26.9
	c-13.5,6.2-10.5-2.3-18.4-1.3l-1.9,2.9l-2.7,0.1C798.4,689.2,800.2,650.5,800.8,644.3z"/>
<path class="st0" d="M812.4,663.8c15.3,0.4,16.2,14.9,5.9,23.8C802.7,686.9,800.3,672.5,812.4,663.8z"/>
<path class="st6" d="M527,659.5c3.3-0.2,11.7,2.8,12.9,2.5c1.3-0.4,2-2.4,4.1-3c2.8,4.7-0.3,28.7,0.8,35.7
	c0.6,3.6,0.9,10.7-2.8,12.6l-2.8-1.1l-0.5-2c0.3-3.8,0.9-7.3-0.5-10.7c-3.4-2.3-10.2-0.3-19.9-3.5
	C513.1,677.7,512.7,665.1,527,659.5z"/>
<path class="st0" d="M526.8,664.7c16.8-0.8,15.6,16.6,5.6,23.3c-3.5-0.6-6.6-0.9-9.2-3.7c-1.8-1.9-2.8-4.5-2.7-7.2
	C520.6,671.3,523,668.3,526.8,664.7z"/>
<path class="st5" d="M342.4,304.2c3.6-2.1,8-1.6,12.3-1.6c0,10.3,0.3,67.7-1,73.6l-10.5-0.2l-1.2-0.9
	C341,370.1,341,309.6,342.4,304.2z"/>
<path class="st6" d="M343.3,375.8c-0.1-2.6-0.4-1.4,0.9-3.6c2,0.2,2.9,0.4,4.7-0.5c1.7-5,2-16.8,2.5-22.8c1.9,9.3,1.6,17.8,2.4,27.2
	L343.3,375.8z"/>
<path class="st6" d="M342.4,304.2l2.7,0.9c0.7,6.1-0.2,16.8,0,23.7l-1.2-0.7C343.7,322.5,343.6,308.8,342.4,304.2z"/>
<path class="st4" d="M632.1,194.2l3.3,0.7c0.4,0.5,0.8,1,1.2,1.5c0.3,50.4,0.1,132.3-0.3,179.6l-3.9-0.8l-1-1.7
	c0.5-38.9,0.6-77.7,0.2-116.6C631.5,247.8,630.6,200.2,632.1,194.2z"/>
<path class="st6" d="M376.1,301.6l12.7-0.8c-1.7,20.7-1,51.3-1,72.5l-0.3,1c-2.5,1.8-8.5,1.1-12.1,1.2c0.5-15.3,0.6-30.6,0.4-45.8
	C375.7,323.9,375.1,306,376.1,301.6z"/>
<path class="st6" d="M916,659.9c8.7-2.2,17.5,3,19.9,11.6s-2.4,17.6-11,20.3c-5.8,1.8-12.1,0.3-16.4-3.8c-4.4-4.2-6.1-10.4-4.5-16.2
	C905.5,665.9,910.1,661.4,916,659.9z"/>
<path class="st0" d="M917.3,664.1c15.3-0.3,17.4,15.7,5.1,24C905.9,687.7,904.1,671.2,917.3,664.1z"/>
<path class="st6" d="M133.8,660c8.8-2.6,18,2.4,20.5,11.2c2.6,8.8-2.4,18-11.2,20.5c-8.7,2.5-17.9-2.5-20.4-11.2
	C120.1,671.7,125.1,662.6,133.8,660z"/>
<path class="st0" d="M136.2,664c14.3,1.2,16.9,17.2,4.5,24.4c-0.6-0.1-1.2-0.1-1.8-0.2C125.8,686,123.9,671.3,136.2,664z"/>
<path class="st6" d="M672.7,670.2c13-22.5,35.4-3.5,27.4,7.1c-5.8,0.8-19.7,0.9-22.8,4.1c3.3,8.6,17.1,2.4,22.7,6
	c-2.8,4.3-15.6,6.1-19.9,2.8c-3.8-3-5.5-4.4-7.9-8.7c-1.8-2.5-1.5-3.8-4-6.2c-0.3-1.4-0.1-9.3-0.1-11.2
	C669.8,667,670.2,668.8,672.7,670.2z"/>
<path class="st9" d="M668.1,664.1c1.7,2.9,2,4.7,4.5,6.1c-0.2,3.8-0.4,7.5-0.5,11.3c-1.8-2.5-1.5-3.8-4-6.2
	C667.9,673.8,668.1,666,668.1,664.1z"/>
<path class="st0" d="M686.8,663.7c4.6,0.9,8.4,3,9.1,7.8c-2.2,2.4-1.7,1.6-5.7,2.3c-5,0-7.8,0.9-11.3-3.1l0.4-2.2
	C681.7,665.6,683.4,665.1,686.8,663.7z"/>
<path class="st7" d="M409.6,376.1c-0.9-12-0.1-28.1-0.2-40.4c-0.1-10.8-0.7-25.7,0.3-36.1c2.3-2.2,1.3-1.5,4.9-2.2
	c1.1,0.6,3.1,1.4,3,2.9c-0.6,11.6,1.4,68.6-1,75.1L409.6,376.1z"/>
<path class="st8" d="M415,347c0.1,6.5,0.2,22.6,1.7,28.4l-7.1,0.8C412.7,367.2,411.4,359,415,347z"/>
<path class="st6" d="M362.2,660.3c1.6-0.2,3.3-0.4,4.9-0.5c7.6-0.5,16.6,6,17,13.5c-6.4,7.8-18.7,2.9-24.3,8
	c0.9,6.1,7.5,6.5,12.5,6.7c3.3-1.8,4.2-2.6,7.9-2.4l0.4,0.9c-1.3,3.6-11.6,6.2-14.9,5.7C346.7,689.3,351.8,669.3,362.2,660.3z"/>
<path class="st0" d="M365,664.9c6.2-0.6,9.7,0.3,11.8,6.6l-0.9,1.5l-2.3,0.2c-4.3,0.1-10.6,0.9-13.5-1.5
	C360.5,668.6,362.6,667.2,365,664.9z"/>
<path class="st6" d="M868.8,659.4c13.4,0.7,15.3,7,17.9,18.5c-5.9,0.5-20.8-1.6-24.6,2l0.3,1.9c4.8,5.9,10,5.8,16.8,4.3
	c1.9-1.1,1.2-0.7,3.5-0.9l1,1.4c-2.8,6-10.1,7.2-15.8,5.3C851.2,686.5,853.3,665.4,868.8,659.4z"/>
<path class="st0" d="M866.8,664.6c6.9-0.3,10.6,0.1,13,7.5l-0.9,1.7h-2.7c-4.6,0-10,1-13.1-2.4C863.2,668.3,864.7,667.1,866.8,664.6
	z"/>
<path class="st6" d="M299.6,659.6c2.2-0.1,6-0.3,8.1,0c3.1,0.4,5.8,2.1,7.6,4.7c5.2,7.6,3.3,19.8,1.5,28.2c-4.7,0.3-3.2-3.3-5.5-2.9
	c-9.8,1.6-7.7,4-18.2,1c-0.4-1.4-0.8-2.9-1.1-4.4c-2.6-14.2,16.4-11.2,20.4-17.1c-2-8.4-14-1.9-18.3-4.8
	C295.6,662.1,297.4,661.2,299.6,659.6z"/>
<path class="st0" d="M303.5,677.2c3.8-0.3,4.7-0.6,7.9,1c2.1,2.9,1.8,1.4,1.3,4.7c-2.3,3.1-3.1,3-7.1,4.2c-3.6,0.8-5.7,0.5-8.5-1.7
	l-0.2-2.6C299.5,678.6,298.9,679.8,303.5,677.2z"/>
<path class="st6" d="M191.3,659.8c9.1-0.6,19.5,5.5,18.2,15c-6.3,6.4-17.7-0.2-22,5.7c1.8,7,7.2,6.3,13.2,6c2.8-1,2.8-0.9,5.7-1
	l1.2,1.2l-1.3,1.9C182.5,702.5,170.8,674.2,191.3,659.8z"/>
<path class="st0" d="M195.2,663.9c4.3,0.8,8.3,3.5,8.8,8c-2.3,1.9-1.9,1.3-5.6,1.5c-4.7,0.5-6.8,1.6-10.5-1.8l0.1-2.2
	C190.3,666,191.4,665.7,195.2,663.9z"/>
<path class="st6" d="M491.1,660.6c3-0.2,7.3-0.6,10.1,0.4c9.5,3.3,9.7,22.7,6.1,30.1c-7.6,0.1-16.1,1.2-22.7-1.7
	c-7.7-17.3,14.7-13.3,19.2-19.6l-0.7-1.9c-4.7-3.9-9.5-2.8-16.3-2.7l-1-1.1C488.1,661.1,487.2,662,491.1,660.6z"/>
<path class="st0" d="M497.1,677.1c4.4,0.1,3.3-0.6,6.4,1.6c1.5,6.5-4.2,7.5-8.9,8.7c-3.4-0.1-5.3-0.2-6.8-3.5
	C489.9,678.7,492.2,678.7,497.1,677.1z"/>
<path class="st6" d="M448.2,659.5c15.9-2.4,16.7,23.1,12.4,31.7c-8.7,0.3-15.7,2.5-22.3-1.8c-7.8-16.6,16.2-12.6,18.9-20.7
	c-3.2-5.5-10.3-4.2-16.5-4.6l-0.8-1.2C442.8,659.8,443.5,660.5,448.2,659.5z"/>
<path class="st0" d="M450.9,676.8c4-0.2,5.2-0.4,6.7,3.4c-1.7,5.1-4,5.7-8.9,7c-3.4,0.2-4.3,0.4-6.7-1.8l0.3-2.2
	C445.1,679.3,446.7,678.8,450.9,676.8z"/>
<path class="st6" d="M0,647.3c6.6-0.2,32.3-2.3,36.4,2.2l-1.2,1.7c-4,1.8-9.1,1.1-13.6,0.8l0.4,28.8c0,2.4,0,4.8,0,7.3
	c-1.8,3.2-1.2,3.5-3.7,4.3c-4.4-5.3-2.8-32.7-2.1-40.3c-5.5-0.1-8.1,1-13.8-0.1C-0.1,650.1,0.7,651.1,0,647.3z"/>
<path class="st6" d="M788.4,657.6c3.6,2.8,2.8,29.6,1.3,34l-1.8,0.6l-2.9-2.5l-5.2,0.9c-5.2,0.8-8.6,1.7-13.1-1.5
	c-4-5.5-3-13.3-2.9-20.3c0-3.8-0.6-5.2,1-8.2l2.3-0.5c7.2,5.5-4.1,25.9,10.5,29c9-2,7.5-22.1,8.5-28.7
	C787,659.3,787.8,658.4,788.4,657.6z"/>
<path class="st6" d="M225.7,659.3c11.7,0.4,15.5,3.3,17,16.2c0.5,4.2-0.3,12.6-3.1,15.8c-8.4-3.9,4.5-24.7-11.7-26.8
	c-12.2,6.1-5,17.3-10.1,26.8l-1.8,0.2c-1.2-4.7-1.8-27.1,0.5-30.8c2,0.8,3.2,1.1,5.2,1.7L225.7,659.3z"/>
<path class="st6" d="M552.3,658.5c9.7,2.5,0.2,18.5,6.5,27.1c3.1,2.1,4.8,2.1,8.6,1.5c11.5-1.8,0.9-18.9,7-27.7l2.3-0.2
	c2.2,2.1,1.5,2.7,1.6,6.6c0,6.5,1.2,20.7-0.7,25.8c-3.8,1.8-4.3-2.3-5.5-1.8C547.9,698.6,549.8,675.7,552.3,658.5z"/>
<path class="st7" d="M313,305.8c3.9,0.6,3.3-0.1,5.4,2.1c0.5,7.4,1.2,64-0.3,68.7l-4.3-1.2C312.3,373.4,313,312.8,313,305.8z"/>
<path class="st6" d="M38.3,660.3l2.7,0.5c5.1,5.5-1.8,17.1,3.1,24.6c3,2.2,4.5,2.3,8.4,1.9c12.1-1.2,1.2-17.5,7.9-26.3l2.3-0.2
	c1.5,2.2,0.9,6.8,0.9,10c0.1,5,1.2,17.5-0.8,21.2l-1.8,0.5l-3.2-2.3c-6.6,0.7-13.3,2.3-18.8-1.7C35.2,682.9,37.8,668.5,38.3,660.3z"
	/>
<path class="st6" d="M394,659.1c4.7,0,13.1-0.1,14.6,5.3c-4.6,2.3-10.8-0.7-15.4,2c-0.9,6.2,12.1,7.4,17.2,15.1
	c0.9,7-4.7,8.6-10.3,11c-6,0-10.3-0.6-15.5-4.1l0.8-2.2c5.4-3.2,15.1,5.9,18.9-1.8C399.9,677.3,375.1,672.8,394,659.1z"/>
<path class="st6" d="M713.8,659c4.5-0.7,12.1,0.7,14.8,4.6l-0.6,1.7c-6.4,2-11.9-5-16.4,2.8c2.5,5,11.7,6.9,16.8,13.6
	c1.3,7.1-5.5,8.9-11.3,10.4c-4.5-0.6-10.2-0.4-12.6-4.6l0.9-2c5.3-2.1,14.1,5.9,17.9-1.2C720,678.1,691.1,672.9,713.8,659z"/>
<path class="st6" d="M743.6,659.3c4.3-0.6,13.1,0.2,15.8,3.8l-0.5,1.1c-7.2,3.9-24.3-6.7-21.1,14.1c1.5,10,9.2,9.9,16.5,7.7
	c1.2-0.9,0.8-0.5,2.8-0.6l0.9,1.6c-2.1,5.4-11.9,7.4-16.1,5.1C727.8,684.5,727.9,665,743.6,659.3z"/>
<path class="st6" d="M162,649.5c2.4,0.3,3.4,0.1,5.2,1.7c0.1,14.3,3.8,6,9.9,9.1l0.2,2.8l-1.7,1.8l-4.9-0.4c-5.8,4.5-3,16-0.3,21.7
	c3.4,2.5,2.8,1.8,7.7,2c0.1,2.2,0.4,1.1-1.1,3.2c-22.4,5.6-11.4-19.4-15.3-26.3c-2.1-0.8-3.3-1-4.8-2.7l0.6-1.9l3.4-1.1
	C162.9,656.5,162.1,653.9,162,649.5z"/>
<path class="st6" d="M417.8,649.5c2.6,0.3,3.1,0.2,5,2c-0.3,3.5-0.6,4.6,0.3,8c4.7,2.5,4.5-0.8,9.1,1.6v2.5l-1.4,1.3
	c-2.6-0.2-4.6-0.7-6.7,0.7c-1,4.1-0.9,18.4,2.2,21.6c3.2,0,4.3,0.1,7.3,1.2c-0.6,1-1.7,2.3-2.4,3.3c-18.9,7.1-11.2-18.4-13.2-25.9
	c-1.5-1.1-1.9-1.4-3.6-2.1l-1.3-0.5l-0.6-2.1C418.6,656.4,417.8,656.7,417.8,649.5z"/>
<path class="st6" d="M261.3,659.4c4.6-0.4,8,0.4,12,2.7l0.1,1.6c-5.7,4-10.1,0.4-13.8,1.8c-11.5,4.2-8,26.8,10.6,20.8l1.4-0.7
	l1.5,1.1l-0.3,1.8c-4.2,4.6-11.1,4.9-16.6,2.7c-3.2-1.2-5.8-3.7-7.1-6.9C244.3,673.2,251.1,663.7,261.3,659.4z"/>
<path class="st6" d="M328.2,642.5l2,1.2c0.7,1.1,1,1.7,1,3.3c0.1,14.4,0.3,29.6-1,44c-1,1.1-1.8,2.1-2.4,2.8
	C324.5,689.2,324.7,647.1,328.2,642.5z"/>
<path class="st6" d="M892.3,643.3l3,1c3.1,4.8,0.9,36.8,1.7,46l0.1,1.4c-3.8-0.2-3.4,0.5-5.6-1.5C891.2,680.7,891.2,652,892.3,643.3
	z"/>
<path class="st6" d="M281.9,318.3c2.5,0.9,1.5,0.2,3.1,2.4c1,7.6,1.8,49.5,0.3,55.6l-2.4-1.1C280.8,372.2,281.5,325.4,281.9,318.3z"
	/>
<path class="st6" d="M836.7,660.3c4.8,0.6,3-0.3,6.6,3.9c4.1-1.5,7.2-5.6,10.9-2.9c-3.3,5.7-8.9,3.7-12.5,11.3
	c0,4.1,0.5,15.7-0.8,18.7l-2.2,0.7l-1.7-1.3C835.6,685,836.6,667.2,836.7,660.3z"/>
<path class="st6" d="M587,658.4l3.5,0.6c2.8,3.4,1,28.2,0.8,33.9c-1.4-0.3-2.2-0.6-3.5-1.1C585.1,686.7,586.7,665.5,587,658.4z"/>
<path class="st6" d="M279.9,659.7c1.6,0.2,2,0.4,3.7,0.8c2.3,4.7,1.9,27.5-0.5,32.2C277.2,689.4,279.7,667,279.9,659.7z"/>
<path class="st6" d="M250,329.3c1.1,0.7,1.7,1,1.8,1.6c1.4,8.2,1.4,39.6,0.3,46l-1.8-1.3C247.8,371.3,249.4,335.9,250,329.3z"/>
<path class="st10" d="M217.1,338.3c1.2,0.5,2.7,0.8,2.9,2.4c0.8,7.4,1.7,31.1-1,36.2c-0.3-0.3-2-2.3-2-2.5
	C216.6,366.1,216.6,345.1,217.1,338.3z"/>
<path class="st6" d="M782.4,643.7l2.9,0.8l0.3,2c-1.9,3.9-4.4,5.8-7.6,8.8l-1.4,0.5l-1.3-0.7C775.6,652.7,780.7,646.1,782.4,643.7z"
	/>
<path class="st6" d="M456.9,642.9c1.2,1.3,0.7,0.6,1.1,2.6c-2.8,4.7-7.3,7.5-12,10.1l-0.9-0.9C447.4,650.7,452.8,645,456.9,642.9z"
	/>
<path class="st2" d="M433.7,245.2c-3.4,2.4-12.5,9.2-16.3,8.5l2.2-0.6l-1.3,0.4l2.1-2.8l-0.9,0.6l10.8-7.6L433.7,245.2z"/>
<path class="st6" d="M596.7,642.8l1,0.5l0.3,1.7c-2.4,3.6-7.3,7.6-10.6,10.6l-1.4-0.5l-0.4-1.3C588.1,649.9,593.1,646,596.7,642.8z"
	/>
<text transform="matrix(1.2359 0 0 1 599.4 691.9115)" class="st5 st11 st12">0</text>
<text transform="matrix(1.2359 0 0 1 943.358 691.6918)" class="st5 st11 st12">0</text>
</svg>
